<?xml version="1.0" encoding="UTF-8" standalone="no"?>
<svg xmlns:rdf="http://www.w3.org/1999/02/22-rdf-syntax-ns#" xmlns="http://www.w3.org/2000/svg" height="285.19mm" width="451.56mm" version="1.1" xmlns:cc="http://creativecommons.org/ns#" xmlns:dc="http://purl.org/dc/elements/1.1/" viewBox="0 0 1600 1010.53">
<g transform="translate(-100 368.17)">
<g transform="matrix(4.2105 0 0 4.2105 -152.63 -2104.4)">
<rect height="40" width="80" stroke="#000" y="412.36" x="60" stroke-width="0.475" fill="#00b800"/>
<path d="m70.5 417.86a5 5 0 0 0 -5 5 5 5 0 0 0 5 5 5 5 0 0 0 5 -5 5 5 0 0 0 -5 -5zm20 0a5 5 0 0 0 -5 5 5 5 0 0 0 5 5 5 5 0 0 0 5 -5 5 5 0 0 0 -5 -5zm20 0a5 5 0 0 0 -5 5 5 5 0 0 0 5 5 5 5 0 0 0 5 -5 5 5 0 0 0 -5 -5zm20 0a5 5 0 0 0 -5 5 5 5 0 0 0 5 5 5 5 0 0 0 5 -5 5 5 0 0 0 -5 -5zm-60 20a5 5 0 0 0 -5 5 5 5 0 0 0 5 5 5 5 0 0 0 5 -5 5 5 0 0 0 -5 -5zm20 0a5 5 0 0 0 -5 5 5 5 0 0 0 5 5 5 5 0 0 0 5 -5 5 5 0 0 0 -5 -5zm20 0a5 5 0 0 0 -5 5 5 5 0 0 0 5 5 5 5 0 0 0 5 -5 5 5 0 0 0 -5 -5zm20 0a5 5 0 0 0 -5 5 5 5 0 0 0 5 5 5 5 0 0 0 5 -5 5 5 0 0 0 -5 -5z" fill="#4d4d4d"/>
<path d="m70 417.36a5 5 0 0 0 -5 5 5 5 0 0 0 5 5 5 5 0 0 0 5 -5 5 5 0 0 0 -5 -5zm20 0a5 5 0 0 0 -5 5 5 5 0 0 0 5 5 5 5 0 0 0 5 -5 5 5 0 0 0 -5 -5zm20 0a5 5 0 0 0 -5 5 5 5 0 0 0 5 5 5 5 0 0 0 5 -5 5 5 0 0 0 -5 -5zm20 0a5 5 0 0 0 -5 5 5 5 0 0 0 5 5 5 5 0 0 0 5 -5 5 5 0 0 0 -5 -5zm-60 20a5 5 0 0 0 -5 5 5 5 0 0 0 5 5 5 5 0 0 0 5 -5 5 5 0 0 0 -5 -5zm20 0a5 5 0 0 0 -5 5 5 5 0 0 0 5 5 5 5 0 0 0 5 -5 5 5 0 0 0 -5 -5zm20 0a5 5 0 0 0 -5 5 5 5 0 0 0 5 5 5 5 0 0 0 5 -5 5 5 0 0 0 -5 -5zm20 0a5 5 0 0 0 -5 5 5 5 0 0 0 5 5 5 5 0 0 0 5 -5 5 5 0 0 0 -5 -5z" fill="#00de00"/>
</g>
<g transform="matrix(4.2105 0 0 4.2105 -321.05 -2020.2)">
<rect transform="rotate(-90)" height="40" width="80" stroke="#000" y="180" x="-472.36" stroke-width="0.475" fill="#00e"/>
<path d="m185.5 462.86a5 5 0 0 0 5 5 5 5 0 0 0 5 -5 5 5 0 0 0 -5 -5 5 5 0 0 0 -5 5zm0-20a5 5 0 0 0 5 5 5 5 0 0 0 5 -5 5 5 0 0 0 -5 -5 5 5 0 0 0 -5 5zm0-20a5 5 0 0 0 5 5 5 5 0 0 0 5 -5 5 5 0 0 0 -5 -5 5 5 0 0 0 -5 5zm0-20a5 5 0 0 0 5 5 5 5 0 0 0 5 -5 5 5 0 0 0 -5 -5 5 5 0 0 0 -5 5zm20 60a5 5 0 0 0 5 5 5 5 0 0 0 5 -5 5 5 0 0 0 -5 -5 5 5 0 0 0 -5 5zm0-20a5 5 0 0 0 5 5 5 5 0 0 0 5 -5 5 5 0 0 0 -5 -5 5 5 0 0 0 -5 5zm0-20a5 5 0 0 0 5 5 5 5 0 0 0 5 -5 5 5 0 0 0 -5 -5 5 5 0 0 0 -5 5zm0-20a5 5 0 0 0 5 5 5 5 0 0 0 5 -5 5 5 0 0 0 -5 -5 5 5 0 0 0 -5 5z" fill="#4d4d4d"/>
<path d="m185 462.36a5 5 0 0 0 5 5 5 5 0 0 0 5 -5 5 5 0 0 0 -5 -5 5 5 0 0 0 -5 5zm0-20a5 5 0 0 0 5 5 5 5 0 0 0 5 -5 5 5 0 0 0 -5 -5 5 5 0 0 0 -5 5zm0-20a5 5 0 0 0 5 5 5 5 0 0 0 5 -5 5 5 0 0 0 -5 -5 5 5 0 0 0 -5 5zm0-20a5 5 0 0 0 5 5 5 5 0 0 0 5 -5 5 5 0 0 0 -5 -5 5 5 0 0 0 -5 5zm20 60a5 5 0 0 0 5 5 5 5 0 0 0 5 -5 5 5 0 0 0 -5 -5 5 5 0 0 0 -5 5zm0-20a5 5 0 0 0 5 5 5 5 0 0 0 5 -5 5 5 0 0 0 -5 -5 5 5 0 0 0 -5 5zm0-20a5 5 0 0 0 5 5 5 5 0 0 0 5 -5 5 5 0 0 0 -5 -5 5 5 0 0 0 -5 5zm0-20a5 5 0 0 0 5 5 5 5 0 0 0 5 -5 5 5 0 0 0 -5 -5 5 5 0 0 0 -5 5z" fill="#4343ff"/>
</g>
<g transform="matrix(4.2105 0 0 4.2105 -152.63 -1851.8)">
<rect transform="rotate(-90)" height="40" width="80" stroke="#000" y="180" x="-472.36" stroke-width="0.475" fill="#e0b600"/>
<path d="m185.5 462.86a5 5 0 0 0 5 5 5 5 0 0 0 5 -5 5 5 0 0 0 -5 -5 5 5 0 0 0 -5 5zm0-20a5 5 0 0 0 5 5 5 5 0 0 0 5 -5 5 5 0 0 0 -5 -5 5 5 0 0 0 -5 5zm0-20a5 5 0 0 0 5 5 5 5 0 0 0 5 -5 5 5 0 0 0 -5 -5 5 5 0 0 0 -5 5zm0-20a5 5 0 0 0 5 5 5 5 0 0 0 5 -5 5 5 0 0 0 -5 -5 5 5 0 0 0 -5 5zm20 60a5 5 0 0 0 5 5 5 5 0 0 0 5 -5 5 5 0 0 0 -5 -5 5 5 0 0 0 -5 5zm0-20a5 5 0 0 0 5 5 5 5 0 0 0 5 -5 5 5 0 0 0 -5 -5 5 5 0 0 0 -5 5zm0-20a5 5 0 0 0 5 5 5 5 0 0 0 5 -5 5 5 0 0 0 -5 -5 5 5 0 0 0 -5 5zm0-20a5 5 0 0 0 5 5 5 5 0 0 0 5 -5 5 5 0 0 0 -5 -5 5 5 0 0 0 -5 5z" fill="#4d4d4d"/>
<path d="m185 462.36a5 5 0 0 0 5 5 5 5 0 0 0 5 -5 5 5 0 0 0 -5 -5 5 5 0 0 0 -5 5zm0-20a5 5 0 0 0 5 5 5 5 0 0 0 5 -5 5 5 0 0 0 -5 -5 5 5 0 0 0 -5 5zm0-20a5 5 0 0 0 5 5 5 5 0 0 0 5 -5 5 5 0 0 0 -5 -5 5 5 0 0 0 -5 5zm0-20a5 5 0 0 0 5 5 5 5 0 0 0 5 -5 5 5 0 0 0 -5 -5 5 5 0 0 0 -5 5zm20 60a5 5 0 0 0 5 5 5 5 0 0 0 5 -5 5 5 0 0 0 -5 -5 5 5 0 0 0 -5 5zm0-20a5 5 0 0 0 5 5 5 5 0 0 0 5 -5 5 5 0 0 0 -5 -5 5 5 0 0 0 -5 5zm0-20a5 5 0 0 0 5 5 5 5 0 0 0 5 -5 5 5 0 0 0 -5 -5 5 5 0 0 0 -5 5zm0-20a5 5 0 0 0 5 5 5 5 0 0 0 5 -5 5 5 0 0 0 -5 -5 5 5 0 0 0 -5 5z" fill="#ffda37"/>
</g>
<g transform="matrix(4.2105 0 0 4.2105 -131.58 -1704.4)">
<rect height="40" width="40" stroke="#000" y="357.36" x="55" stroke-width="0.475" fill="#f50000"/>
<path d="m65.5 362.86a5 5 0 0 0 -5 5 5 5 0 0 0 5 5 5 5 0 0 0 5 -5 5 5 0 0 0 -5 -5zm20 0a5 5 0 0 0 -5 5 5 5 0 0 0 5 5 5 5 0 0 0 5 -5 5 5 0 0 0 -5 -5zm-20 20a5 5 0 0 0 -5 5 5 5 0 0 0 5 5 5 5 0 0 0 5 -5 5 5 0 0 0 -5 -5zm20 0a5 5 0 0 0 -5 5 5 5 0 0 0 5 5 5 5 0 0 0 5 -5 5 5 0 0 0 -5 -5z" fill="#4d4d4d"/>
<path d="m65 362.36a5 5 0 0 0 -5 5 5 5 0 0 0 5 5 5 5 0 0 0 5 -5 5 5 0 0 0 -5 -5zm20 0a5 5 0 0 0 -5 5 5 5 0 0 0 5 5 5 5 0 0 0 5 -5 5 5 0 0 0 -5 -5zm-20 20a5 5 0 0 0 -5 5 5 5 0 0 0 5 5 5 5 0 0 0 5 -5 5 5 0 0 0 -5 -5zm20 0a5 5 0 0 0 -5 5 5 5 0 0 0 5 5 5 5 0 0 0 5 -5 5 5 0 0 0 -5 -5z" fill="#ff4040"/>
</g>
<g transform="matrix(4.2105 0 0 4.2105 15.789 -1809.7)">
<rect height="19.999" width="80" stroke="#000" y="462.36" x="60" stroke-width="0.475" fill="#00e"/>
<path d="m70.5 467.86a5 5 0 0 0 -5 5 5 5 0 0 0 5 5 5 5 0 0 0 5 -5 5 5 0 0 0 -5 -5zm20 0a5 5 0 0 0 -5 5 5 5 0 0 0 5 5 5 5 0 0 0 5 -5 5 5 0 0 0 -5 -5zm20 0a5 5 0 0 0 -5 5 5 5 0 0 0 5 5 5 5 0 0 0 5 -5 5 5 0 0 0 -5 -5zm20 0a5 5 0 0 0 -5 5 5 5 0 0 0 5 5 5 5 0 0 0 5 -5 5 5 0 0 0 -5 -5z" fill="#4d4d4d"/>
<path d="m70 467.36a5 5 0 0 0 -5 5 5 5 0 0 0 5 5 5 5 0 0 0 5 -5 5 5 0 0 0 -5 -5zm20 0a5 5 0 0 0 -5 5 5 5 0 0 0 5 5 5 5 0 0 0 5 -5 5 5 0 0 0 -5 -5zm20 0a5 5 0 0 0 -5 5 5 5 0 0 0 5 5 5 5 0 0 0 5 -5 5 5 0 0 0 -5 -5zm20 0a5 5 0 0 0 -5 5 5 5 0 0 0 5 5 5 5 0 0 0 5 -5 5 5 0 0 0 -5 -5z" fill="#4343ff"/>
</g>
<g transform="matrix(4.2105 0 0 4.2105 -489.47 -1851.8)">
<rect transform="rotate(-90)" height="40" width="80" stroke="#000" y="180" x="-472.36" stroke-width="0.475" fill="#e0b600"/>
<path d="m185.5 462.86a5 5 0 0 0 5 5 5 5 0 0 0 5 -5 5 5 0 0 0 -5 -5 5 5 0 0 0 -5 5zm0-20a5 5 0 0 0 5 5 5 5 0 0 0 5 -5 5 5 0 0 0 -5 -5 5 5 0 0 0 -5 5zm0-20a5 5 0 0 0 5 5 5 5 0 0 0 5 -5 5 5 0 0 0 -5 -5 5 5 0 0 0 -5 5zm0-20a5 5 0 0 0 5 5 5 5 0 0 0 5 -5 5 5 0 0 0 -5 -5 5 5 0 0 0 -5 5zm20 60a5 5 0 0 0 5 5 5 5 0 0 0 5 -5 5 5 0 0 0 -5 -5 5 5 0 0 0 -5 5zm0-20a5 5 0 0 0 5 5 5 5 0 0 0 5 -5 5 5 0 0 0 -5 -5 5 5 0 0 0 -5 5zm0-20a5 5 0 0 0 5 5 5 5 0 0 0 5 -5 5 5 0 0 0 -5 -5 5 5 0 0 0 -5 5zm0-20a5 5 0 0 0 5 5 5 5 0 0 0 5 -5 5 5 0 0 0 -5 -5 5 5 0 0 0 -5 5z" fill="#4d4d4d"/>
<path d="m185 462.36a5 5 0 0 0 5 5 5 5 0 0 0 5 -5 5 5 0 0 0 -5 -5 5 5 0 0 0 -5 5zm0-20a5 5 0 0 0 5 5 5 5 0 0 0 5 -5 5 5 0 0 0 -5 -5 5 5 0 0 0 -5 5zm0-20a5 5 0 0 0 5 5 5 5 0 0 0 5 -5 5 5 0 0 0 -5 -5 5 5 0 0 0 -5 5zm0-20a5 5 0 0 0 5 5 5 5 0 0 0 5 -5 5 5 0 0 0 -5 -5 5 5 0 0 0 -5 5zm20 60a5 5 0 0 0 5 5 5 5 0 0 0 5 -5 5 5 0 0 0 -5 -5 5 5 0 0 0 -5 5zm0-20a5 5 0 0 0 5 5 5 5 0 0 0 5 -5 5 5 0 0 0 -5 -5 5 5 0 0 0 -5 5zm0-20a5 5 0 0 0 5 5 5 5 0 0 0 5 -5 5 5 0 0 0 -5 -5 5 5 0 0 0 -5 5zm0-20a5 5 0 0 0 5 5 5 5 0 0 0 5 -5 5 5 0 0 0 -5 -5 5 5 0 0 0 -5 5z" fill="#ffda37"/>
</g>
<g transform="matrix(4.2105 0 0 4.2105 -278.95 -1388.6)">
<rect transform="rotate(-90)" height="20.001" width="40" stroke="#000" y="170" x="-362.36" stroke-width="0.475" fill="#f50000"/>
<path d="m175.5 352.86a5 5 0 0 0 5 5 5 5 0 0 0 5 -5 5 5 0 0 0 -5 -5 5 5 0 0 0 -5 5zm0-20a5 5 0 0 0 5 5 5 5 0 0 0 5 -5 5 5 0 0 0 -5 -5 5 5 0 0 0 -5 5z" fill="#4d4d4d"/>
<path d="m175 352.36a5 5 0 0 0 5 5 5 5 0 0 0 5 -5 5 5 0 0 0 -5 -5 5 5 0 0 0 -5 5zm0-20a5 5 0 0 0 5 5 5 5 0 0 0 5 -5 5 5 0 0 0 -5 -5 5 5 0 0 0 -5 5z" fill="#ff4040"/>
</g>
<g transform="matrix(4.2105 0 0 4.2105 352.63 -2230.7)">
<rect height="19.999" width="80" stroke="#000" y="462.36" x="60" stroke-width="0.475" fill="#00b800"/>
<path d="m70.5 467.86a5 5 0 0 0 -5 5 5 5 0 0 0 5 5 5 5 0 0 0 5 -5 5 5 0 0 0 -5 -5zm20 0a5 5 0 0 0 -5 5 5 5 0 0 0 5 5 5 5 0 0 0 5 -5 5 5 0 0 0 -5 -5zm20 0a5 5 0 0 0 -5 5 5 5 0 0 0 5 5 5 5 0 0 0 5 -5 5 5 0 0 0 -5 -5zm20 0a5 5 0 0 0 -5 5 5 5 0 0 0 5 5 5 5 0 0 0 5 -5 5 5 0 0 0 -5 -5z" fill="#4d4d4d"/>
<path d="m70 467.36a5 5 0 0 0 -5 5 5 5 0 0 0 5 5 5 5 0 0 0 5 -5 5 5 0 0 0 -5 -5zm20 0a5 5 0 0 0 -5 5 5 5 0 0 0 5 5 5 5 0 0 0 5 -5 5 5 0 0 0 -5 -5zm20 0a5 5 0 0 0 -5 5 5 5 0 0 0 5 5 5 5 0 0 0 5 -5 5 5 0 0 0 -5 -5zm20 0a5 5 0 0 0 -5 5 5 5 0 0 0 5 5 5 5 0 0 0 5 -5 5 5 0 0 0 -5 -5z" fill="#00de00"/>
</g>
<g transform="matrix(4.2105 0 0 4.2105 436.84 -1767.6)">
<rect height="20.001" width="40" stroke="#000" y="332.36" x="60" stroke-width="0.475" fill="#f50000"/>
<path d="m70.5 337.86a5 5 0 0 0 -5 5 5 5 0 0 0 5 5 5 5 0 0 0 5 -5 5 5 0 0 0 -5 -5zm20 0a5 5 0 0 0 -5 5 5 5 0 0 0 5 5 5 5 0 0 0 5 -5 5 5 0 0 0 -5 -5z" fill="#4d4d4d"/>
<path d="m70 337.36a5 5 0 0 0 -5 5 5 5 0 0 0 5 5 5 5 0 0 0 5 -5 5 5 0 0 0 -5 -5zm20 0a5 5 0 0 0 -5 5 5 5 0 0 0 5 5 5 5 0 0 0 5 -5 5 5 0 0 0 -5 -5z" fill="#ff4040"/>
</g>
<g transform="matrix(4.2105 0 0 4.2105 352.63 -2441.3)">
<rect height="20.001" width="20" stroke="#000" y="492.36" x="60" stroke-width="0.475" fill="#e0b600"/>
<path d="m70.5 497.86a5 5 0 0 0 -5 5 5 5 0 0 0 5 5 5 5 0 0 0 5 -5 5 5 0 0 0 -5 -5z" fill="#4d4d4d"/>
<path d="m70 497.36a5 5 0 0 0 -5 5 5 5 0 0 0 5 5 5 5 0 0 0 5 -5 5 5 0 0 0 -5 -5z" fill="#ffda37"/>
</g>
<g transform="matrix(4.2105 0 0 4.2105 605.26 -2441.3)">
<rect height="20.001" width="20" stroke="#000" y="492.36" x="60" stroke-width="0.475" fill="#00e"/>
<path d="m70.5 497.86a5 5 0 0 0 -5 5 5 5 0 0 0 5 5 5 5 0 0 0 5 -5 5 5 0 0 0 -5 -5z" fill="#4d4d4d"/>
<path d="m70 497.36a5 5 0 0 0 -5 5 5 5 0 0 0 5 5 5 5 0 0 0 5 -5 5 5 0 0 0 -5 -5z" fill="#4343ff"/>
</g>
<g transform="matrix(4.2105 0 0 4.2105 542.11 -1704.4)">
<rect height="40" width="40" stroke="#000" y="357.36" x="55" stroke-width="0.475" fill="#00e"/>
<path d="m65.5 362.86a5 5 0 0 0 -5 5 5 5 0 0 0 5 5 5 5 0 0 0 5 -5 5 5 0 0 0 -5 -5zm20 0a5 5 0 0 0 -5 5 5 5 0 0 0 5 5 5 5 0 0 0 5 -5 5 5 0 0 0 -5 -5zm-20 20a5 5 0 0 0 -5 5 5 5 0 0 0 5 5 5 5 0 0 0 5 -5 5 5 0 0 0 -5 -5zm20 0a5 5 0 0 0 -5 5 5 5 0 0 0 5 5 5 5 0 0 0 5 -5 5 5 0 0 0 -5 -5z" fill="#4d4d4d"/>
<path d="m65 362.36a5 5 0 0 0 -5 5 5 5 0 0 0 5 5 5 5 0 0 0 5 -5 5 5 0 0 0 -5 -5zm20 0a5 5 0 0 0 -5 5 5 5 0 0 0 5 5 5 5 0 0 0 5 -5 5 5 0 0 0 -5 -5zm-20 20a5 5 0 0 0 -5 5 5 5 0 0 0 5 5 5 5 0 0 0 5 -5 5 5 0 0 0 -5 -5zm20 0a5 5 0 0 0 -5 5 5 5 0 0 0 5 5 5 5 0 0 0 5 -5 5 5 0 0 0 -5 -5z" fill="#4343ff"/>
</g>
<g transform="matrix(4.2105 0 0 4.2105 521.05 -1767.6)">
<rect height="40" width="80" stroke="#000" y="412.36" x="60" stroke-width="0.475" fill="#f50000"/>
<path d="m70.5 417.86a5 5 0 0 0 -5 5 5 5 0 0 0 5 5 5 5 0 0 0 5 -5 5 5 0 0 0 -5 -5zm20 0a5 5 0 0 0 -5 5 5 5 0 0 0 5 5 5 5 0 0 0 5 -5 5 5 0 0 0 -5 -5zm20 0a5 5 0 0 0 -5 5 5 5 0 0 0 5 5 5 5 0 0 0 5 -5 5 5 0 0 0 -5 -5zm20 0a5 5 0 0 0 -5 5 5 5 0 0 0 5 5 5 5 0 0 0 5 -5 5 5 0 0 0 -5 -5zm-60 20a5 5 0 0 0 -5 5 5 5 0 0 0 5 5 5 5 0 0 0 5 -5 5 5 0 0 0 -5 -5zm20 0a5 5 0 0 0 -5 5 5 5 0 0 0 5 5 5 5 0 0 0 5 -5 5 5 0 0 0 -5 -5zm20 0a5 5 0 0 0 -5 5 5 5 0 0 0 5 5 5 5 0 0 0 5 -5 5 5 0 0 0 -5 -5zm20 0a5 5 0 0 0 -5 5 5 5 0 0 0 5 5 5 5 0 0 0 5 -5 5 5 0 0 0 -5 -5z" fill="#4d4d4d"/>
<path d="m70 417.36a5 5 0 0 0 -5 5 5 5 0 0 0 5 5 5 5 0 0 0 5 -5 5 5 0 0 0 -5 -5zm20 0a5 5 0 0 0 -5 5 5 5 0 0 0 5 5 5 5 0 0 0 5 -5 5 5 0 0 0 -5 -5zm20 0a5 5 0 0 0 -5 5 5 5 0 0 0 5 5 5 5 0 0 0 5 -5 5 5 0 0 0 -5 -5zm20 0a5 5 0 0 0 -5 5 5 5 0 0 0 5 5 5 5 0 0 0 5 -5 5 5 0 0 0 -5 -5zm-60 20a5 5 0 0 0 -5 5 5 5 0 0 0 5 5 5 5 0 0 0 5 -5 5 5 0 0 0 -5 -5zm20 0a5 5 0 0 0 -5 5 5 5 0 0 0 5 5 5 5 0 0 0 5 -5 5 5 0 0 0 -5 -5zm20 0a5 5 0 0 0 -5 5 5 5 0 0 0 5 5 5 5 0 0 0 5 -5 5 5 0 0 0 -5 -5zm20 0a5 5 0 0 0 -5 5 5 5 0 0 0 5 5 5 5 0 0 0 5 -5 5 5 0 0 0 -5 -5z" fill="#ff4040"/>
</g>
<g transform="matrix(4.2105 0 0 4.2105 -657.89 -1683.4)">
<rect transform="rotate(-90)" height="40" width="80" stroke="#000" y="180" x="-472.36" stroke-width="0.475" fill="#00b800"/>
<path d="m185.5 462.86a5 5 0 0 0 5 5 5 5 0 0 0 5 -5 5 5 0 0 0 -5 -5 5 5 0 0 0 -5 5zm0-20a5 5 0 0 0 5 5 5 5 0 0 0 5 -5 5 5 0 0 0 -5 -5 5 5 0 0 0 -5 5zm0-20a5 5 0 0 0 5 5 5 5 0 0 0 5 -5 5 5 0 0 0 -5 -5 5 5 0 0 0 -5 5zm0-20a5 5 0 0 0 5 5 5 5 0 0 0 5 -5 5 5 0 0 0 -5 -5 5 5 0 0 0 -5 5zm20 60a5 5 0 0 0 5 5 5 5 0 0 0 5 -5 5 5 0 0 0 -5 -5 5 5 0 0 0 -5 5zm0-20a5 5 0 0 0 5 5 5 5 0 0 0 5 -5 5 5 0 0 0 -5 -5 5 5 0 0 0 -5 5zm0-20a5 5 0 0 0 5 5 5 5 0 0 0 5 -5 5 5 0 0 0 -5 -5 5 5 0 0 0 -5 5zm0-20a5 5 0 0 0 5 5 5 5 0 0 0 5 -5 5 5 0 0 0 -5 -5 5 5 0 0 0 -5 5z" fill="#4d4d4d"/>
<path d="m185 462.36a5 5 0 0 0 5 5 5 5 0 0 0 5 -5 5 5 0 0 0 -5 -5 5 5 0 0 0 -5 5zm0-20a5 5 0 0 0 5 5 5 5 0 0 0 5 -5 5 5 0 0 0 -5 -5 5 5 0 0 0 -5 5zm0-20a5 5 0 0 0 5 5 5 5 0 0 0 5 -5 5 5 0 0 0 -5 -5 5 5 0 0 0 -5 5zm0-20a5 5 0 0 0 5 5 5 5 0 0 0 5 -5 5 5 0 0 0 -5 -5 5 5 0 0 0 -5 5zm20 60a5 5 0 0 0 5 5 5 5 0 0 0 5 -5 5 5 0 0 0 -5 -5 5 5 0 0 0 -5 5zm0-20a5 5 0 0 0 5 5 5 5 0 0 0 5 -5 5 5 0 0 0 -5 -5 5 5 0 0 0 -5 5zm0-20a5 5 0 0 0 5 5 5 5 0 0 0 5 -5 5 5 0 0 0 -5 -5 5 5 0 0 0 -5 5zm0-20a5 5 0 0 0 5 5 5 5 0 0 0 5 -5 5 5 0 0 0 -5 -5 5 5 0 0 0 -5 5z" fill="#00de00"/>
</g>
<g transform="matrix(4.2105 0 0 4.2105 184.21 -2020.2)">
<rect transform="rotate(-90)" height="40" width="80" stroke="#000" y="180" x="-472.36" stroke-width="0.475" fill="#e0b600"/>
<path d="m185.5 462.86a5 5 0 0 0 5 5 5 5 0 0 0 5 -5 5 5 0 0 0 -5 -5 5 5 0 0 0 -5 5zm0-20a5 5 0 0 0 5 5 5 5 0 0 0 5 -5 5 5 0 0 0 -5 -5 5 5 0 0 0 -5 5zm0-20a5 5 0 0 0 5 5 5 5 0 0 0 5 -5 5 5 0 0 0 -5 -5 5 5 0 0 0 -5 5zm0-20a5 5 0 0 0 5 5 5 5 0 0 0 5 -5 5 5 0 0 0 -5 -5 5 5 0 0 0 -5 5zm20 60a5 5 0 0 0 5 5 5 5 0 0 0 5 -5 5 5 0 0 0 -5 -5 5 5 0 0 0 -5 5zm0-20a5 5 0 0 0 5 5 5 5 0 0 0 5 -5 5 5 0 0 0 -5 -5 5 5 0 0 0 -5 5zm0-20a5 5 0 0 0 5 5 5 5 0 0 0 5 -5 5 5 0 0 0 -5 -5 5 5 0 0 0 -5 5zm0-20a5 5 0 0 0 5 5 5 5 0 0 0 5 -5 5 5 0 0 0 -5 -5 5 5 0 0 0 -5 5z" fill="#4d4d4d"/>
<path d="m185 462.36a5 5 0 0 0 5 5 5 5 0 0 0 5 -5 5 5 0 0 0 -5 -5 5 5 0 0 0 -5 5zm0-20a5 5 0 0 0 5 5 5 5 0 0 0 5 -5 5 5 0 0 0 -5 -5 5 5 0 0 0 -5 5zm0-20a5 5 0 0 0 5 5 5 5 0 0 0 5 -5 5 5 0 0 0 -5 -5 5 5 0 0 0 -5 5zm0-20a5 5 0 0 0 5 5 5 5 0 0 0 5 -5 5 5 0 0 0 -5 -5 5 5 0 0 0 -5 5zm20 60a5 5 0 0 0 5 5 5 5 0 0 0 5 -5 5 5 0 0 0 -5 -5 5 5 0 0 0 -5 5zm0-20a5 5 0 0 0 5 5 5 5 0 0 0 5 -5 5 5 0 0 0 -5 -5 5 5 0 0 0 -5 5zm0-20a5 5 0 0 0 5 5 5 5 0 0 0 5 -5 5 5 0 0 0 -5 -5 5 5 0 0 0 -5 5zm0-20a5 5 0 0 0 5 5 5 5 0 0 0 5 -5 5 5 0 0 0 -5 -5 5 5 0 0 0 -5 5z" fill="#ffda37"/>
</g>
<g transform="matrix(4.2105 0 0 4.2105 352.63 -1683.4)">
<rect transform="rotate(-90)" height="40" width="80" stroke="#000" y="180" x="-472.36" stroke-width="0.475" fill="#00b800"/>
<path d="m185.5 462.86a5 5 0 0 0 5 5 5 5 0 0 0 5 -5 5 5 0 0 0 -5 -5 5 5 0 0 0 -5 5zm0-20a5 5 0 0 0 5 5 5 5 0 0 0 5 -5 5 5 0 0 0 -5 -5 5 5 0 0 0 -5 5zm0-20a5 5 0 0 0 5 5 5 5 0 0 0 5 -5 5 5 0 0 0 -5 -5 5 5 0 0 0 -5 5zm0-20a5 5 0 0 0 5 5 5 5 0 0 0 5 -5 5 5 0 0 0 -5 -5 5 5 0 0 0 -5 5zm20 60a5 5 0 0 0 5 5 5 5 0 0 0 5 -5 5 5 0 0 0 -5 -5 5 5 0 0 0 -5 5zm0-20a5 5 0 0 0 5 5 5 5 0 0 0 5 -5 5 5 0 0 0 -5 -5 5 5 0 0 0 -5 5zm0-20a5 5 0 0 0 5 5 5 5 0 0 0 5 -5 5 5 0 0 0 -5 -5 5 5 0 0 0 -5 5zm0-20a5 5 0 0 0 5 5 5 5 0 0 0 5 -5 5 5 0 0 0 -5 -5 5 5 0 0 0 -5 5z" fill="#4d4d4d"/>
<path d="m185 462.36a5 5 0 0 0 5 5 5 5 0 0 0 5 -5 5 5 0 0 0 -5 -5 5 5 0 0 0 -5 5zm0-20a5 5 0 0 0 5 5 5 5 0 0 0 5 -5 5 5 0 0 0 -5 -5 5 5 0 0 0 -5 5zm0-20a5 5 0 0 0 5 5 5 5 0 0 0 5 -5 5 5 0 0 0 -5 -5 5 5 0 0 0 -5 5zm0-20a5 5 0 0 0 5 5 5 5 0 0 0 5 -5 5 5 0 0 0 -5 -5 5 5 0 0 0 -5 5zm20 60a5 5 0 0 0 5 5 5 5 0 0 0 5 -5 5 5 0 0 0 -5 -5 5 5 0 0 0 -5 5zm0-20a5 5 0 0 0 5 5 5 5 0 0 0 5 -5 5 5 0 0 0 -5 -5 5 5 0 0 0 -5 5zm0-20a5 5 0 0 0 5 5 5 5 0 0 0 5 -5 5 5 0 0 0 -5 -5 5 5 0 0 0 -5 5zm0-20a5 5 0 0 0 5 5 5 5 0 0 0 5 -5 5 5 0 0 0 -5 -5 5 5 0 0 0 -5 5z" fill="#00de00"/>
</g>
<g transform="matrix(4.2105 0 0 4.2105 -194.74 -1388.6)">
<rect transform="rotate(-90)" height="20.001" width="40" stroke="#000" y="170" x="-362.36" stroke-width="0.475" fill="#00b800"/>
<path d="m175.5 352.86a5 5 0 0 0 5 5 5 5 0 0 0 5 -5 5 5 0 0 0 -5 -5 5 5 0 0 0 -5 5zm0-20a5 5 0 0 0 5 5 5 5 0 0 0 5 -5 5 5 0 0 0 -5 -5 5 5 0 0 0 -5 5z" fill="#4d4d4d"/>
<path d="m175 352.36a5 5 0 0 0 5 5 5 5 0 0 0 5 -5 5 5 0 0 0 -5 -5 5 5 0 0 0 -5 5zm0-20a5 5 0 0 0 5 5 5 5 0 0 0 5 -5 5 5 0 0 0 -5 -5 5 5 0 0 0 -5 5z" fill="#00de00"/>
</g>
<g transform="matrix(4.2105 0 0 4.2105 310.52 -2188.6)">
<rect transform="rotate(-90)" height="19.999" width="80" stroke="#000" y="230" x="-512.36" stroke-width="0.475" fill="#f50000"/>
<path d="m235.5 502.86a5 5 0 0 0 5 5 5 5 0 0 0 5 -5 5 5 0 0 0 -5 -5 5 5 0 0 0 -5 5zm0-20a5 5 0 0 0 5 5 5 5 0 0 0 5 -5 5 5 0 0 0 -5 -5 5 5 0 0 0 -5 5zm0-20a5 5 0 0 0 5 5 5 5 0 0 0 5 -5 5 5 0 0 0 -5 -5 5 5 0 0 0 -5 5zm0-20a5 5 0 0 0 5 5 5 5 0 0 0 5 -5 5 5 0 0 0 -5 -5 5 5 0 0 0 -5 5z" fill="#4d4d4d"/>
<path d="m235 502.36a5 5 0 0 0 5 5 5 5 0 0 0 5 -5 5 5 0 0 0 -5 -5 5 5 0 0 0 -5 5zm0-20a5 5 0 0 0 5 5 5 5 0 0 0 5 -5 5 5 0 0 0 -5 -5 5 5 0 0 0 -5 5zm0-20a5 5 0 0 0 5 5 5 5 0 0 0 5 -5 5 5 0 0 0 -5 -5 5 5 0 0 0 -5 5zm0-20a5 5 0 0 0 5 5 5 5 0 0 0 5 -5 5 5 0 0 0 -5 -5 5 5 0 0 0 -5 5z" fill="#ff4040"/>
</g>
<g transform="matrix(4.2105 0 0 4.2105 1026.3 -1767.6)">
<rect height="40" width="80" stroke="#000" y="412.36" x="60" stroke-width="0.475" fill="#e0b600"/>
<path d="m70.5 417.86a5 5 0 0 0 -5 5 5 5 0 0 0 5 5 5 5 0 0 0 5 -5 5 5 0 0 0 -5 -5zm20 0a5 5 0 0 0 -5 5 5 5 0 0 0 5 5 5 5 0 0 0 5 -5 5 5 0 0 0 -5 -5zm20 0a5 5 0 0 0 -5 5 5 5 0 0 0 5 5 5 5 0 0 0 5 -5 5 5 0 0 0 -5 -5zm20 0a5 5 0 0 0 -5 5 5 5 0 0 0 5 5 5 5 0 0 0 5 -5 5 5 0 0 0 -5 -5zm-60 20a5 5 0 0 0 -5 5 5 5 0 0 0 5 5 5 5 0 0 0 5 -5 5 5 0 0 0 -5 -5zm20 0a5 5 0 0 0 -5 5 5 5 0 0 0 5 5 5 5 0 0 0 5 -5 5 5 0 0 0 -5 -5zm20 0a5 5 0 0 0 -5 5 5 5 0 0 0 5 5 5 5 0 0 0 5 -5 5 5 0 0 0 -5 -5zm20 0a5 5 0 0 0 -5 5 5 5 0 0 0 5 5 5 5 0 0 0 5 -5 5 5 0 0 0 -5 -5z" fill="#4d4d4d"/>
<path d="m70 417.36a5 5 0 0 0 -5 5 5 5 0 0 0 5 5 5 5 0 0 0 5 -5 5 5 0 0 0 -5 -5zm20 0a5 5 0 0 0 -5 5 5 5 0 0 0 5 5 5 5 0 0 0 5 -5 5 5 0 0 0 -5 -5zm20 0a5 5 0 0 0 -5 5 5 5 0 0 0 5 5 5 5 0 0 0 5 -5 5 5 0 0 0 -5 -5zm20 0a5 5 0 0 0 -5 5 5 5 0 0 0 5 5 5 5 0 0 0 5 -5 5 5 0 0 0 -5 -5zm-60 20a5 5 0 0 0 -5 5 5 5 0 0 0 5 5 5 5 0 0 0 5 -5 5 5 0 0 0 -5 -5zm20 0a5 5 0 0 0 -5 5 5 5 0 0 0 5 5 5 5 0 0 0 5 -5 5 5 0 0 0 -5 -5zm20 0a5 5 0 0 0 -5 5 5 5 0 0 0 5 5 5 5 0 0 0 5 -5 5 5 0 0 0 -5 -5zm20 0a5 5 0 0 0 -5 5 5 5 0 0 0 5 5 5 5 0 0 0 5 -5 5 5 0 0 0 -5 -5z" fill="#ffda37"/>
</g>
<g transform="matrix(4.2105 0 0 4.2105 878.95 -1872.8)">
<rect height="40" width="40" stroke="#000" y="357.36" x="55" stroke-width="0.475" fill="#00e"/>
<path d="m65.5 362.86a5 5 0 0 0 -5 5 5 5 0 0 0 5 5 5 5 0 0 0 5 -5 5 5 0 0 0 -5 -5zm20 0a5 5 0 0 0 -5 5 5 5 0 0 0 5 5 5 5 0 0 0 5 -5 5 5 0 0 0 -5 -5zm-20 20a5 5 0 0 0 -5 5 5 5 0 0 0 5 5 5 5 0 0 0 5 -5 5 5 0 0 0 -5 -5zm20 0a5 5 0 0 0 -5 5 5 5 0 0 0 5 5 5 5 0 0 0 5 -5 5 5 0 0 0 -5 -5z" fill="#4d4d4d"/>
<path d="m65 362.36a5 5 0 0 0 -5 5 5 5 0 0 0 5 5 5 5 0 0 0 5 -5 5 5 0 0 0 -5 -5zm20 0a5 5 0 0 0 -5 5 5 5 0 0 0 5 5 5 5 0 0 0 5 -5 5 5 0 0 0 -5 -5zm-20 20a5 5 0 0 0 -5 5 5 5 0 0 0 5 5 5 5 0 0 0 5 -5 5 5 0 0 0 -5 -5zm20 0a5 5 0 0 0 -5 5 5 5 0 0 0 5 5 5 5 0 0 0 5 -5 5 5 0 0 0 -5 -5z" fill="#4343ff"/>
</g>
<g transform="matrix(4.2105 0 0 4.2105 857.89 -1599.2)">
<rect height="20.001" width="40" stroke="#000" y="332.36" x="60" stroke-width="0.475" fill="#00b800"/>
<path d="m70.5 337.86a5 5 0 0 0 -5 5 5 5 0 0 0 5 5 5 5 0 0 0 5 -5 5 5 0 0 0 -5 -5zm20 0a5 5 0 0 0 -5 5 5 5 0 0 0 5 5 5 5 0 0 0 5 -5 5 5 0 0 0 -5 -5z" fill="#4d4d4d"/>
<path d="m70 337.36a5 5 0 0 0 -5 5 5 5 0 0 0 5 5 5 5 0 0 0 5 -5 5 5 0 0 0 -5 -5zm20 0a5 5 0 0 0 -5 5 5 5 0 0 0 5 5 5 5 0 0 0 5 -5 5 5 0 0 0 -5 -5z" fill="#00de00"/>
</g>
<g transform="matrix(4.2105 0 0 4.2105 857.89 -1515)">
<rect height="20.001" width="40" stroke="#000" y="332.36" x="60" stroke-width="0.475" fill="#00e"/>
<path d="m70.5 337.86a5 5 0 0 0 -5 5 5 5 0 0 0 5 5 5 5 0 0 0 5 -5 5 5 0 0 0 -5 -5zm20 0a5 5 0 0 0 -5 5 5 5 0 0 0 5 5 5 5 0 0 0 5 -5 5 5 0 0 0 -5 -5z" fill="#4d4d4d"/>
<path d="m70 337.36a5 5 0 0 0 -5 5 5 5 0 0 0 5 5 5 5 0 0 0 5 -5 5 5 0 0 0 -5 -5zm20 0a5 5 0 0 0 -5 5 5 5 0 0 0 5 5 5 5 0 0 0 5 -5 5 5 0 0 0 -5 -5z" fill="#4343ff"/>
</g>
<g transform="matrix(4.2105 0 0 4.2105 1131.6 -1872.8)">
<rect height="40" width="40" stroke="#000" y="357.36" x="55" stroke-width="0.475" fill="#00b800"/>
<path d="m65.5 362.86a5 5 0 0 0 -5 5 5 5 0 0 0 5 5 5 5 0 0 0 5 -5 5 5 0 0 0 -5 -5zm20 0a5 5 0 0 0 -5 5 5 5 0 0 0 5 5 5 5 0 0 0 5 -5 5 5 0 0 0 -5 -5zm-20 20a5 5 0 0 0 -5 5 5 5 0 0 0 5 5 5 5 0 0 0 5 -5 5 5 0 0 0 -5 -5zm20 0a5 5 0 0 0 -5 5 5 5 0 0 0 5 5 5 5 0 0 0 5 -5 5 5 0 0 0 -5 -5z" fill="#4d4d4d"/>
<path d="m65 362.36a5 5 0 0 0 -5 5 5 5 0 0 0 5 5 5 5 0 0 0 5 -5 5 5 0 0 0 -5 -5zm20 0a5 5 0 0 0 -5 5 5 5 0 0 0 5 5 5 5 0 0 0 5 -5 5 5 0 0 0 -5 -5zm-20 20a5 5 0 0 0 -5 5 5 5 0 0 0 5 5 5 5 0 0 0 5 -5 5 5 0 0 0 -5 -5zm20 0a5 5 0 0 0 -5 5 5 5 0 0 0 5 5 5 5 0 0 0 5 -5 5 5 0 0 0 -5 -5z" fill="#00de00"/>
</g>
<g transform="matrix(4.2105 0 0 4.2105 773.68 -2020.2)">
<rect transform="rotate(-90)" height="40" width="80" stroke="#000" y="180" x="-472.36" stroke-width="0.475" fill="#00e"/>
<path d="m185.5 462.86a5 5 0 0 0 5 5 5 5 0 0 0 5 -5 5 5 0 0 0 -5 -5 5 5 0 0 0 -5 5zm0-20a5 5 0 0 0 5 5 5 5 0 0 0 5 -5 5 5 0 0 0 -5 -5 5 5 0 0 0 -5 5zm0-20a5 5 0 0 0 5 5 5 5 0 0 0 5 -5 5 5 0 0 0 -5 -5 5 5 0 0 0 -5 5zm0-20a5 5 0 0 0 5 5 5 5 0 0 0 5 -5 5 5 0 0 0 -5 -5 5 5 0 0 0 -5 5zm20 60a5 5 0 0 0 5 5 5 5 0 0 0 5 -5 5 5 0 0 0 -5 -5 5 5 0 0 0 -5 5zm0-20a5 5 0 0 0 5 5 5 5 0 0 0 5 -5 5 5 0 0 0 -5 -5 5 5 0 0 0 -5 5zm0-20a5 5 0 0 0 5 5 5 5 0 0 0 5 -5 5 5 0 0 0 -5 -5 5 5 0 0 0 -5 5zm0-20a5 5 0 0 0 5 5 5 5 0 0 0 5 -5 5 5 0 0 0 -5 -5 5 5 0 0 0 -5 5z" fill="#4d4d4d"/>
<path d="m185 462.36a5 5 0 0 0 5 5 5 5 0 0 0 5 -5 5 5 0 0 0 -5 -5 5 5 0 0 0 -5 5zm0-20a5 5 0 0 0 5 5 5 5 0 0 0 5 -5 5 5 0 0 0 -5 -5 5 5 0 0 0 -5 5zm0-20a5 5 0 0 0 5 5 5 5 0 0 0 5 -5 5 5 0 0 0 -5 -5 5 5 0 0 0 -5 5zm0-20a5 5 0 0 0 5 5 5 5 0 0 0 5 -5 5 5 0 0 0 -5 -5 5 5 0 0 0 -5 5zm20 60a5 5 0 0 0 5 5 5 5 0 0 0 5 -5 5 5 0 0 0 -5 -5 5 5 0 0 0 -5 5zm0-20a5 5 0 0 0 5 5 5 5 0 0 0 5 -5 5 5 0 0 0 -5 -5 5 5 0 0 0 -5 5zm0-20a5 5 0 0 0 5 5 5 5 0 0 0 5 -5 5 5 0 0 0 -5 -5 5 5 0 0 0 -5 5zm0-20a5 5 0 0 0 5 5 5 5 0 0 0 5 -5 5 5 0 0 0 -5 -5 5 5 0 0 0 -5 5z" fill="#4343ff"/>
</g>
<g transform="matrix(4.2105 0 0 4.2105 647.37 -1557.1)">
<rect transform="rotate(-90)" height="20.001" width="40" stroke="#000" y="170" x="-362.36" stroke-width="0.475" fill="#00e"/>
<path d="m175.5 352.86a5 5 0 0 0 5 5 5 5 0 0 0 5 -5 5 5 0 0 0 -5 -5 5 5 0 0 0 -5 5zm0-20a5 5 0 0 0 5 5 5 5 0 0 0 5 -5 5 5 0 0 0 -5 -5 5 5 0 0 0 -5 5z" fill="#4d4d4d"/>
<path d="m175 352.36a5 5 0 0 0 5 5 5 5 0 0 0 5 -5 5 5 0 0 0 -5 -5 5 5 0 0 0 -5 5zm0-20a5 5 0 0 0 5 5 5 5 0 0 0 5 -5 5 5 0 0 0 -5 -5 5 5 0 0 0 -5 5z" fill="#4343ff"/>
</g>
<g transform="matrix(4.2105 0 0 4.2105 1194.7 -2188.6)">
<rect height="20.001" width="20" stroke="#000" y="492.36" x="60" stroke-width="0.475" fill="#00b800"/>
<path d="m70.5 497.86a5 5 0 0 0 -5 5 5 5 0 0 0 5 5 5 5 0 0 0 5 -5 5 5 0 0 0 -5 -5z" fill="#4d4d4d"/>
<path d="m70 497.36a5 5 0 0 0 -5 5 5 5 0 0 0 5 5 5 5 0 0 0 5 -5 5 5 0 0 0 -5 -5z" fill="#00de00"/>
</g>
<g transform="matrix(4.2105 0 0 4.2105 1194.7 -2272.9)">
<rect height="20.001" width="20" stroke="#000" y="492.36" x="60" stroke-width="0.475" fill="#f50000"/>
<path d="m70.5 497.86a5 5 0 0 0 -5 5 5 5 0 0 0 5 5 5 5 0 0 0 5 -5 5 5 0 0 0 -5 -5z" fill="#4d4d4d"/>
<path d="m70 497.36a5 5 0 0 0 -5 5 5 5 0 0 0 5 5 5 5 0 0 0 5 -5 5 5 0 0 0 -5 -5z" fill="#ff4040"/>
</g>
<g transform="matrix(4.2105 0 0 4.2105 -868.42 -1515)">
<rect transform="rotate(-90)" height="19.999" width="80" stroke="#000" y="230" x="-512.36" stroke-width="0.475" fill="#e0b600"/>
<path d="m235.5 502.86a5 5 0 0 0 5 5 5 5 0 0 0 5 -5 5 5 0 0 0 -5 -5 5 5 0 0 0 -5 5zm0-20a5 5 0 0 0 5 5 5 5 0 0 0 5 -5 5 5 0 0 0 -5 -5 5 5 0 0 0 -5 5zm0-20a5 5 0 0 0 5 5 5 5 0 0 0 5 -5 5 5 0 0 0 -5 -5 5 5 0 0 0 -5 5zm0-20a5 5 0 0 0 5 5 5 5 0 0 0 5 -5 5 5 0 0 0 -5 -5 5 5 0 0 0 -5 5z" fill="#4d4d4d"/>
<path d="m235 502.36a5 5 0 0 0 5 5 5 5 0 0 0 5 -5 5 5 0 0 0 -5 -5 5 5 0 0 0 -5 5zm0-20a5 5 0 0 0 5 5 5 5 0 0 0 5 -5 5 5 0 0 0 -5 -5 5 5 0 0 0 -5 5zm0-20a5 5 0 0 0 5 5 5 5 0 0 0 5 -5 5 5 0 0 0 -5 -5 5 5 0 0 0 -5 5zm0-20a5 5 0 0 0 5 5 5 5 0 0 0 5 -5 5 5 0 0 0 -5 -5 5 5 0 0 0 -5 5z" fill="#ffda37"/>
</g>
<g transform="matrix(4.2105 0 0 4.2105 647.37 -1851.8)">
<rect transform="rotate(-90)" height="19.999" width="80" stroke="#000" y="230" x="-512.36" stroke-width="0.475" fill="#00b800"/>
<path d="m235.5 502.86a5 5 0 0 0 5 5 5 5 0 0 0 5 -5 5 5 0 0 0 -5 -5 5 5 0 0 0 -5 5zm0-20a5 5 0 0 0 5 5 5 5 0 0 0 5 -5 5 5 0 0 0 -5 -5 5 5 0 0 0 -5 5zm0-20a5 5 0 0 0 5 5 5 5 0 0 0 5 -5 5 5 0 0 0 -5 -5 5 5 0 0 0 -5 5zm0-20a5 5 0 0 0 5 5 5 5 0 0 0 5 -5 5 5 0 0 0 -5 -5 5 5 0 0 0 -5 5z" fill="#4d4d4d"/>
<path d="m235 502.36a5 5 0 0 0 5 5 5 5 0 0 0 5 -5 5 5 0 0 0 -5 -5 5 5 0 0 0 -5 5zm0-20a5 5 0 0 0 5 5 5 5 0 0 0 5 -5 5 5 0 0 0 -5 -5 5 5 0 0 0 -5 5zm0-20a5 5 0 0 0 5 5 5 5 0 0 0 5 -5 5 5 0 0 0 -5 -5 5 5 0 0 0 -5 5zm0-20a5 5 0 0 0 5 5 5 5 0 0 0 5 -5 5 5 0 0 0 -5 -5 5 5 0 0 0 -5 5z" fill="#00de00"/>
</g>
<g transform="matrix(4.2105 0 0 4.2105 310.53 -1683.4)">
<rect transform="rotate(-90)" height="19.999" width="80" stroke="#000" y="230" x="-512.36" stroke-width="0.475" fill="#f50000"/>
<path d="m235.5 502.86a5 5 0 0 0 5 5 5 5 0 0 0 5 -5 5 5 0 0 0 -5 -5 5 5 0 0 0 -5 5zm0-20a5 5 0 0 0 5 5 5 5 0 0 0 5 -5 5 5 0 0 0 -5 -5 5 5 0 0 0 -5 5zm0-20a5 5 0 0 0 5 5 5 5 0 0 0 5 -5 5 5 0 0 0 -5 -5 5 5 0 0 0 -5 5zm0-20a5 5 0 0 0 5 5 5 5 0 0 0 5 -5 5 5 0 0 0 -5 -5 5 5 0 0 0 -5 5z" fill="#4d4d4d"/>
<path d="m235 502.36a5 5 0 0 0 5 5 5 5 0 0 0 5 -5 5 5 0 0 0 -5 -5 5 5 0 0 0 -5 5zm0-20a5 5 0 0 0 5 5 5 5 0 0 0 5 -5 5 5 0 0 0 -5 -5 5 5 0 0 0 -5 5zm0-20a5 5 0 0 0 5 5 5 5 0 0 0 5 -5 5 5 0 0 0 -5 -5 5 5 0 0 0 -5 5zm0-20a5 5 0 0 0 5 5 5 5 0 0 0 5 -5 5 5 0 0 0 -5 -5 5 5 0 0 0 -5 5z" fill="#ff4040"/>
</g>
<g transform="matrix(4.2105 0 0 4.2105 -405.26 -1430.7)">
<rect transform="rotate(-90)" height="40" width="80" stroke="#000" y="180" x="-472.36" stroke-width="0.475" fill="#f50000"/>
<path d="m185.5 462.86a5 5 0 0 0 5 5 5 5 0 0 0 5 -5 5 5 0 0 0 -5 -5 5 5 0 0 0 -5 5zm0-20a5 5 0 0 0 5 5 5 5 0 0 0 5 -5 5 5 0 0 0 -5 -5 5 5 0 0 0 -5 5zm0-20a5 5 0 0 0 5 5 5 5 0 0 0 5 -5 5 5 0 0 0 -5 -5 5 5 0 0 0 -5 5zm0-20a5 5 0 0 0 5 5 5 5 0 0 0 5 -5 5 5 0 0 0 -5 -5 5 5 0 0 0 -5 5zm20 60a5 5 0 0 0 5 5 5 5 0 0 0 5 -5 5 5 0 0 0 -5 -5 5 5 0 0 0 -5 5zm0-20a5 5 0 0 0 5 5 5 5 0 0 0 5 -5 5 5 0 0 0 -5 -5 5 5 0 0 0 -5 5zm0-20a5 5 0 0 0 5 5 5 5 0 0 0 5 -5 5 5 0 0 0 -5 -5 5 5 0 0 0 -5 5zm0-20a5 5 0 0 0 5 5 5 5 0 0 0 5 -5 5 5 0 0 0 -5 -5 5 5 0 0 0 -5 5z" fill="#4d4d4d"/>
<path d="m185 462.36a5 5 0 0 0 5 5 5 5 0 0 0 5 -5 5 5 0 0 0 -5 -5 5 5 0 0 0 -5 5zm0-20a5 5 0 0 0 5 5 5 5 0 0 0 5 -5 5 5 0 0 0 -5 -5 5 5 0 0 0 -5 5zm0-20a5 5 0 0 0 5 5 5 5 0 0 0 5 -5 5 5 0 0 0 -5 -5 5 5 0 0 0 -5 5zm0-20a5 5 0 0 0 5 5 5 5 0 0 0 5 -5 5 5 0 0 0 -5 -5 5 5 0 0 0 -5 5zm20 60a5 5 0 0 0 5 5 5 5 0 0 0 5 -5 5 5 0 0 0 -5 -5 5 5 0 0 0 -5 5zm0-20a5 5 0 0 0 5 5 5 5 0 0 0 5 -5 5 5 0 0 0 -5 -5 5 5 0 0 0 -5 5zm0-20a5 5 0 0 0 5 5 5 5 0 0 0 5 -5 5 5 0 0 0 -5 -5 5 5 0 0 0 -5 5zm0-20a5 5 0 0 0 5 5 5 5 0 0 0 5 -5 5 5 0 0 0 -5 -5 5 5 0 0 0 -5 5z" fill="#ff4040"/>
</g>
<g transform="matrix(4.2105 0 0 4.2105 -47.368 -1030.7)">
<rect height="40" width="40" stroke="#000" y="357.36" x="55" stroke-width="0.475" fill="#00e"/>
<path d="m65.5 362.86a5 5 0 0 0 -5 5 5 5 0 0 0 5 5 5 5 0 0 0 5 -5 5 5 0 0 0 -5 -5zm20 0a5 5 0 0 0 -5 5 5 5 0 0 0 5 5 5 5 0 0 0 5 -5 5 5 0 0 0 -5 -5zm-20 20a5 5 0 0 0 -5 5 5 5 0 0 0 5 5 5 5 0 0 0 5 -5 5 5 0 0 0 -5 -5zm20 0a5 5 0 0 0 -5 5 5 5 0 0 0 5 5 5 5 0 0 0 5 -5 5 5 0 0 0 -5 -5z" fill="#4d4d4d"/>
<path d="m65 362.36a5 5 0 0 0 -5 5 5 5 0 0 0 5 5 5 5 0 0 0 5 -5 5 5 0 0 0 -5 -5zm20 0a5 5 0 0 0 -5 5 5 5 0 0 0 5 5 5 5 0 0 0 5 -5 5 5 0 0 0 -5 -5zm-20 20a5 5 0 0 0 -5 5 5 5 0 0 0 5 5 5 5 0 0 0 5 -5 5 5 0 0 0 -5 -5zm20 0a5 5 0 0 0 -5 5 5 5 0 0 0 5 5 5 5 0 0 0 5 -5 5 5 0 0 0 -5 -5z" fill="#4343ff"/>
</g>
<g transform="matrix(4.2105 0 0 4.2105 100 -1388.6)">
<rect height="19.999" width="80" stroke="#000" y="462.36" x="60" stroke-width="0.475" fill="#00b800"/>
<path d="m70.5 467.86a5 5 0 0 0 -5 5 5 5 0 0 0 5 5 5 5 0 0 0 5 -5 5 5 0 0 0 -5 -5zm20 0a5 5 0 0 0 -5 5 5 5 0 0 0 5 5 5 5 0 0 0 5 -5 5 5 0 0 0 -5 -5zm20 0a5 5 0 0 0 -5 5 5 5 0 0 0 5 5 5 5 0 0 0 5 -5 5 5 0 0 0 -5 -5zm20 0a5 5 0 0 0 -5 5 5 5 0 0 0 5 5 5 5 0 0 0 5 -5 5 5 0 0 0 -5 -5z" fill="#4d4d4d"/>
<path d="m70 467.36a5 5 0 0 0 -5 5 5 5 0 0 0 5 5 5 5 0 0 0 5 -5 5 5 0 0 0 -5 -5zm20 0a5 5 0 0 0 -5 5 5 5 0 0 0 5 5 5 5 0 0 0 5 -5 5 5 0 0 0 -5 -5zm20 0a5 5 0 0 0 -5 5 5 5 0 0 0 5 5 5 5 0 0 0 5 -5 5 5 0 0 0 -5 -5zm20 0a5 5 0 0 0 -5 5 5 5 0 0 0 5 5 5 5 0 0 0 5 -5 5 5 0 0 0 -5 -5z" fill="#00de00"/>
</g>
<g transform="matrix(4.2105 0 0 4.2105 -68.421 -1009.7)">
<rect height="20.001" width="40" stroke="#000" y="332.36" x="60" stroke-width="0.475" fill="#00b800"/>
<path d="m70.5 337.86a5 5 0 0 0 -5 5 5 5 0 0 0 5 5 5 5 0 0 0 5 -5 5 5 0 0 0 -5 -5zm20 0a5 5 0 0 0 -5 5 5 5 0 0 0 5 5 5 5 0 0 0 5 -5 5 5 0 0 0 -5 -5z" fill="#4d4d4d"/>
<path d="m70 337.36a5 5 0 0 0 -5 5 5 5 0 0 0 5 5 5 5 0 0 0 5 -5 5 5 0 0 0 -5 -5zm20 0a5 5 0 0 0 -5 5 5 5 0 0 0 5 5 5 5 0 0 0 5 -5 5 5 0 0 0 -5 -5z" fill="#00de00"/>
</g>
<g transform="matrix(4.2105 0 0 4.2105 436.84 -1683.4)">
<rect height="20.001" width="20" stroke="#000" y="492.36" x="60" stroke-width="0.475" fill="#00b800"/>
<path d="m70.5 497.86a5 5 0 0 0 -5 5 5 5 0 0 0 5 5 5 5 0 0 0 5 -5 5 5 0 0 0 -5 -5z" fill="#4d4d4d"/>
<path d="m70 497.36a5 5 0 0 0 -5 5 5 5 0 0 0 5 5 5 5 0 0 0 5 -5 5 5 0 0 0 -5 -5z" fill="#00de00"/>
</g>
<g transform="matrix(4.2105 0 0 4.2105 647.37 -1220.2)">
<rect transform="rotate(-90)" height="20.001" width="40" stroke="#000" y="170" x="-362.36" stroke-width="0.475" fill="#00b800"/>
<path d="m175.5 352.86a5 5 0 0 0 5 5 5 5 0 0 0 5 -5 5 5 0 0 0 -5 -5 5 5 0 0 0 -5 5zm0-20a5 5 0 0 0 5 5 5 5 0 0 0 5 -5 5 5 0 0 0 -5 -5 5 5 0 0 0 -5 5z" fill="#4d4d4d"/>
<path d="m175 352.36a5 5 0 0 0 5 5 5 5 0 0 0 5 -5 5 5 0 0 0 -5 -5 5 5 0 0 0 -5 5zm0-20a5 5 0 0 0 5 5 5 5 0 0 0 5 -5 5 5 0 0 0 -5 -5 5 5 0 0 0 -5 5z" fill="#00de00"/>
</g>
<g transform="matrix(4.2105 0 0 4.2105 436.84 -1262.3)">
<rect height="40" width="80" stroke="#000" y="412.36" x="60" stroke-width="0.475" fill="#00e"/>
<path d="m70.5 417.86a5 5 0 0 0 -5 5 5 5 0 0 0 5 5 5 5 0 0 0 5 -5 5 5 0 0 0 -5 -5zm20 0a5 5 0 0 0 -5 5 5 5 0 0 0 5 5 5 5 0 0 0 5 -5 5 5 0 0 0 -5 -5zm20 0a5 5 0 0 0 -5 5 5 5 0 0 0 5 5 5 5 0 0 0 5 -5 5 5 0 0 0 -5 -5zm20 0a5 5 0 0 0 -5 5 5 5 0 0 0 5 5 5 5 0 0 0 5 -5 5 5 0 0 0 -5 -5zm-60 20a5 5 0 0 0 -5 5 5 5 0 0 0 5 5 5 5 0 0 0 5 -5 5 5 0 0 0 -5 -5zm20 0a5 5 0 0 0 -5 5 5 5 0 0 0 5 5 5 5 0 0 0 5 -5 5 5 0 0 0 -5 -5zm20 0a5 5 0 0 0 -5 5 5 5 0 0 0 5 5 5 5 0 0 0 5 -5 5 5 0 0 0 -5 -5zm20 0a5 5 0 0 0 -5 5 5 5 0 0 0 5 5 5 5 0 0 0 5 -5 5 5 0 0 0 -5 -5z" fill="#4d4d4d"/>
<path d="m70 417.36a5 5 0 0 0 -5 5 5 5 0 0 0 5 5 5 5 0 0 0 5 -5 5 5 0 0 0 -5 -5zm20 0a5 5 0 0 0 -5 5 5 5 0 0 0 5 5 5 5 0 0 0 5 -5 5 5 0 0 0 -5 -5zm20 0a5 5 0 0 0 -5 5 5 5 0 0 0 5 5 5 5 0 0 0 5 -5 5 5 0 0 0 -5 -5zm20 0a5 5 0 0 0 -5 5 5 5 0 0 0 5 5 5 5 0 0 0 5 -5 5 5 0 0 0 -5 -5zm-60 20a5 5 0 0 0 -5 5 5 5 0 0 0 5 5 5 5 0 0 0 5 -5 5 5 0 0 0 -5 -5zm20 0a5 5 0 0 0 -5 5 5 5 0 0 0 5 5 5 5 0 0 0 5 -5 5 5 0 0 0 -5 -5zm20 0a5 5 0 0 0 -5 5 5 5 0 0 0 5 5 5 5 0 0 0 5 -5 5 5 0 0 0 -5 -5zm20 0a5 5 0 0 0 -5 5 5 5 0 0 0 5 5 5 5 0 0 0 5 -5 5 5 0 0 0 -5 -5z" fill="#4343ff"/>
</g>
<g transform="matrix(4.2105 0 0 4.2105 857.89 -1093.9)">
<rect height="20.001" width="40" stroke="#000" y="332.36" x="60" stroke-width="0.475" fill="#00e"/>
<path d="m70.5 337.86a5 5 0 0 0 -5 5 5 5 0 0 0 5 5 5 5 0 0 0 5 -5 5 5 0 0 0 -5 -5zm20 0a5 5 0 0 0 -5 5 5 5 0 0 0 5 5 5 5 0 0 0 5 -5 5 5 0 0 0 -5 -5z" fill="#4d4d4d"/>
<path d="m70 337.36a5 5 0 0 0 -5 5 5 5 0 0 0 5 5 5 5 0 0 0 5 -5 5 5 0 0 0 -5 -5zm20 0a5 5 0 0 0 -5 5 5 5 0 0 0 5 5 5 5 0 0 0 5 -5 5 5 0 0 0 -5 -5z" fill="#4343ff"/>
</g>
<g transform="matrix(4.2105 0 0 4.2105 436.84 -1936)">
<rect height="20.001" width="20" stroke="#000" y="492.36" x="60" stroke-width="0.475" fill="#00e"/>
<path d="m70.5 497.86a5 5 0 0 0 -5 5 5 5 0 0 0 5 5 5 5 0 0 0 5 -5 5 5 0 0 0 -5 -5z" fill="#4d4d4d"/>
<path d="m70 497.36a5 5 0 0 0 -5 5 5 5 0 0 0 5 5 5 5 0 0 0 5 -5 5 5 0 0 0 -5 -5z" fill="#4343ff"/>
</g>
<g transform="matrix(4.2105 0 0 4.2105 -68.421 -1767.6)">
<rect height="20.001" width="20" stroke="#000" y="492.36" x="60" stroke-width="0.475" fill="#f50000"/>
<path d="m70.5 497.86a5 5 0 0 0 -5 5 5 5 0 0 0 5 5 5 5 0 0 0 5 -5 5 5 0 0 0 -5 -5z" fill="#4d4d4d"/>
<path d="m70 497.36a5 5 0 0 0 -5 5 5 5 0 0 0 5 5 5 5 0 0 0 5 -5 5 5 0 0 0 -5 -5z" fill="#ff4040"/>
</g>
<g transform="matrix(4.2105 0 0 4.2105 289.47 -1115)">
<rect height="40" width="40" stroke="#000" y="357.36" x="55" stroke-width="0.475" fill="#e0b600"/>
<path d="m65.5 362.86a5 5 0 0 0 -5 5 5 5 0 0 0 5 5 5 5 0 0 0 5 -5 5 5 0 0 0 -5 -5zm20 0a5 5 0 0 0 -5 5 5 5 0 0 0 5 5 5 5 0 0 0 5 -5 5 5 0 0 0 -5 -5zm-20 20a5 5 0 0 0 -5 5 5 5 0 0 0 5 5 5 5 0 0 0 5 -5 5 5 0 0 0 -5 -5zm20 0a5 5 0 0 0 -5 5 5 5 0 0 0 5 5 5 5 0 0 0 5 -5 5 5 0 0 0 -5 -5z" fill="#4d4d4d"/>
<path d="m65 362.36a5 5 0 0 0 -5 5 5 5 0 0 0 5 5 5 5 0 0 0 5 -5 5 5 0 0 0 -5 -5zm20 0a5 5 0 0 0 -5 5 5 5 0 0 0 5 5 5 5 0 0 0 5 -5 5 5 0 0 0 -5 -5zm-20 20a5 5 0 0 0 -5 5 5 5 0 0 0 5 5 5 5 0 0 0 5 -5 5 5 0 0 0 -5 -5zm20 0a5 5 0 0 0 -5 5 5 5 0 0 0 5 5 5 5 0 0 0 5 -5 5 5 0 0 0 -5 -5z" fill="#ffda37"/>
</g>
<g transform="matrix(4.2105 0 0 4.2105 521.05 -1430.7)">
<rect height="40" width="80" stroke="#000" y="412.36" x="60" stroke-width="0.475" fill="#e0b600"/>
<path d="m70.5 417.86a5 5 0 0 0 -5 5 5 5 0 0 0 5 5 5 5 0 0 0 5 -5 5 5 0 0 0 -5 -5zm20 0a5 5 0 0 0 -5 5 5 5 0 0 0 5 5 5 5 0 0 0 5 -5 5 5 0 0 0 -5 -5zm20 0a5 5 0 0 0 -5 5 5 5 0 0 0 5 5 5 5 0 0 0 5 -5 5 5 0 0 0 -5 -5zm20 0a5 5 0 0 0 -5 5 5 5 0 0 0 5 5 5 5 0 0 0 5 -5 5 5 0 0 0 -5 -5zm-60 20a5 5 0 0 0 -5 5 5 5 0 0 0 5 5 5 5 0 0 0 5 -5 5 5 0 0 0 -5 -5zm20 0a5 5 0 0 0 -5 5 5 5 0 0 0 5 5 5 5 0 0 0 5 -5 5 5 0 0 0 -5 -5zm20 0a5 5 0 0 0 -5 5 5 5 0 0 0 5 5 5 5 0 0 0 5 -5 5 5 0 0 0 -5 -5zm20 0a5 5 0 0 0 -5 5 5 5 0 0 0 5 5 5 5 0 0 0 5 -5 5 5 0 0 0 -5 -5z" fill="#4d4d4d"/>
<path d="m70 417.36a5 5 0 0 0 -5 5 5 5 0 0 0 5 5 5 5 0 0 0 5 -5 5 5 0 0 0 -5 -5zm20 0a5 5 0 0 0 -5 5 5 5 0 0 0 5 5 5 5 0 0 0 5 -5 5 5 0 0 0 -5 -5zm20 0a5 5 0 0 0 -5 5 5 5 0 0 0 5 5 5 5 0 0 0 5 -5 5 5 0 0 0 -5 -5zm20 0a5 5 0 0 0 -5 5 5 5 0 0 0 5 5 5 5 0 0 0 5 -5 5 5 0 0 0 -5 -5zm-60 20a5 5 0 0 0 -5 5 5 5 0 0 0 5 5 5 5 0 0 0 5 -5 5 5 0 0 0 -5 -5zm20 0a5 5 0 0 0 -5 5 5 5 0 0 0 5 5 5 5 0 0 0 5 -5 5 5 0 0 0 -5 -5zm20 0a5 5 0 0 0 -5 5 5 5 0 0 0 5 5 5 5 0 0 0 5 -5 5 5 0 0 0 -5 -5zm20 0a5 5 0 0 0 -5 5 5 5 0 0 0 5 5 5 5 0 0 0 5 -5 5 5 0 0 0 -5 -5z" fill="#ffda37"/>
</g>
<g transform="matrix(4.2105 0 0 4.2105 1110.5 -1641.3)">
<rect height="19.999" width="80" stroke="#000" y="462.36" x="60" stroke-width="0.475" fill="#e0b600"/>
<path d="m70.5 467.86a5 5 0 0 0 -5 5 5 5 0 0 0 5 5 5 5 0 0 0 5 -5 5 5 0 0 0 -5 -5zm20 0a5 5 0 0 0 -5 5 5 5 0 0 0 5 5 5 5 0 0 0 5 -5 5 5 0 0 0 -5 -5zm20 0a5 5 0 0 0 -5 5 5 5 0 0 0 5 5 5 5 0 0 0 5 -5 5 5 0 0 0 -5 -5zm20 0a5 5 0 0 0 -5 5 5 5 0 0 0 5 5 5 5 0 0 0 5 -5 5 5 0 0 0 -5 -5z" fill="#4d4d4d"/>
<path d="m70 467.36a5 5 0 0 0 -5 5 5 5 0 0 0 5 5 5 5 0 0 0 5 -5 5 5 0 0 0 -5 -5zm20 0a5 5 0 0 0 -5 5 5 5 0 0 0 5 5 5 5 0 0 0 5 -5 5 5 0 0 0 -5 -5zm20 0a5 5 0 0 0 -5 5 5 5 0 0 0 5 5 5 5 0 0 0 5 -5 5 5 0 0 0 -5 -5zm20 0a5 5 0 0 0 -5 5 5 5 0 0 0 5 5 5 5 0 0 0 5 -5 5 5 0 0 0 -5 -5z" fill="#ffda37"/>
</g>
<g transform="matrix(4.2105 0 0 4.2105 -447.37 -1136)">
<rect transform="rotate(-90)" height="20.001" width="40" stroke="#000" y="170" x="-362.36" stroke-width="0.475" fill="#e0b600"/>
<path d="m175.5 352.86a5 5 0 0 0 5 5 5 5 0 0 0 5 -5 5 5 0 0 0 -5 -5 5 5 0 0 0 -5 5zm0-20a5 5 0 0 0 5 5 5 5 0 0 0 5 -5 5 5 0 0 0 -5 -5 5 5 0 0 0 -5 5z" fill="#4d4d4d"/>
<path d="m175 352.36a5 5 0 0 0 5 5 5 5 0 0 0 5 -5 5 5 0 0 0 -5 -5 5 5 0 0 0 -5 5zm0-20a5 5 0 0 0 5 5 5 5 0 0 0 5 -5 5 5 0 0 0 -5 -5 5 5 0 0 0 -5 5z" fill="#ffda37"/>
</g>
<g transform="matrix(4.2105 0 0 4.2105 942.11 -1262.3)">
<rect height="40" width="80" stroke="#000" y="412.36" x="60" stroke-width="0.475" fill="#00e"/>
<path d="m70.5 417.86a5 5 0 0 0 -5 5 5 5 0 0 0 5 5 5 5 0 0 0 5 -5 5 5 0 0 0 -5 -5zm20 0a5 5 0 0 0 -5 5 5 5 0 0 0 5 5 5 5 0 0 0 5 -5 5 5 0 0 0 -5 -5zm20 0a5 5 0 0 0 -5 5 5 5 0 0 0 5 5 5 5 0 0 0 5 -5 5 5 0 0 0 -5 -5zm20 0a5 5 0 0 0 -5 5 5 5 0 0 0 5 5 5 5 0 0 0 5 -5 5 5 0 0 0 -5 -5zm-60 20a5 5 0 0 0 -5 5 5 5 0 0 0 5 5 5 5 0 0 0 5 -5 5 5 0 0 0 -5 -5zm20 0a5 5 0 0 0 -5 5 5 5 0 0 0 5 5 5 5 0 0 0 5 -5 5 5 0 0 0 -5 -5zm20 0a5 5 0 0 0 -5 5 5 5 0 0 0 5 5 5 5 0 0 0 5 -5 5 5 0 0 0 -5 -5zm20 0a5 5 0 0 0 -5 5 5 5 0 0 0 5 5 5 5 0 0 0 5 -5 5 5 0 0 0 -5 -5z" fill="#4d4d4d"/>
<path d="m70 417.36a5 5 0 0 0 -5 5 5 5 0 0 0 5 5 5 5 0 0 0 5 -5 5 5 0 0 0 -5 -5zm20 0a5 5 0 0 0 -5 5 5 5 0 0 0 5 5 5 5 0 0 0 5 -5 5 5 0 0 0 -5 -5zm20 0a5 5 0 0 0 -5 5 5 5 0 0 0 5 5 5 5 0 0 0 5 -5 5 5 0 0 0 -5 -5zm20 0a5 5 0 0 0 -5 5 5 5 0 0 0 5 5 5 5 0 0 0 5 -5 5 5 0 0 0 -5 -5zm-60 20a5 5 0 0 0 -5 5 5 5 0 0 0 5 5 5 5 0 0 0 5 -5 5 5 0 0 0 -5 -5zm20 0a5 5 0 0 0 -5 5 5 5 0 0 0 5 5 5 5 0 0 0 5 -5 5 5 0 0 0 -5 -5zm20 0a5 5 0 0 0 -5 5 5 5 0 0 0 5 5 5 5 0 0 0 5 -5 5 5 0 0 0 -5 -5zm20 0a5 5 0 0 0 -5 5 5 5 0 0 0 5 5 5 5 0 0 0 5 -5 5 5 0 0 0 -5 -5z" fill="#4343ff"/>
</g>
<g transform="matrix(4.2105 0 0 4.2105 794.74 -1030.7)">
<rect height="40" width="40" stroke="#000" y="357.36" x="55" stroke-width="0.475" fill="#f50000"/>
<path d="m65.5 362.86a5 5 0 0 0 -5 5 5 5 0 0 0 5 5 5 5 0 0 0 5 -5 5 5 0 0 0 -5 -5zm20 0a5 5 0 0 0 -5 5 5 5 0 0 0 5 5 5 5 0 0 0 5 -5 5 5 0 0 0 -5 -5zm-20 20a5 5 0 0 0 -5 5 5 5 0 0 0 5 5 5 5 0 0 0 5 -5 5 5 0 0 0 -5 -5zm20 0a5 5 0 0 0 -5 5 5 5 0 0 0 5 5 5 5 0 0 0 5 -5 5 5 0 0 0 -5 -5z" fill="#4d4d4d"/>
<path d="m65 362.36a5 5 0 0 0 -5 5 5 5 0 0 0 5 5 5 5 0 0 0 5 -5 5 5 0 0 0 -5 -5zm20 0a5 5 0 0 0 -5 5 5 5 0 0 0 5 5 5 5 0 0 0 5 -5 5 5 0 0 0 -5 -5zm-20 20a5 5 0 0 0 -5 5 5 5 0 0 0 5 5 5 5 0 0 0 5 -5 5 5 0 0 0 -5 -5zm20 0a5 5 0 0 0 -5 5 5 5 0 0 0 5 5 5 5 0 0 0 5 -5 5 5 0 0 0 -5 -5z" fill="#ff4040"/>
</g>
<g transform="matrix(4.2105 0 0 4.2105 1215.8 -1367.6)">
<rect height="40" width="40" stroke="#000" y="357.36" x="55" stroke-width="0.475" fill="#f50000"/>
<path d="m65.5 362.86a5 5 0 0 0 -5 5 5 5 0 0 0 5 5 5 5 0 0 0 5 -5 5 5 0 0 0 -5 -5zm20 0a5 5 0 0 0 -5 5 5 5 0 0 0 5 5 5 5 0 0 0 5 -5 5 5 0 0 0 -5 -5zm-20 20a5 5 0 0 0 -5 5 5 5 0 0 0 5 5 5 5 0 0 0 5 -5 5 5 0 0 0 -5 -5zm20 0a5 5 0 0 0 -5 5 5 5 0 0 0 5 5 5 5 0 0 0 5 -5 5 5 0 0 0 -5 -5z" fill="#4d4d4d"/>
<path d="m65 362.36a5 5 0 0 0 -5 5 5 5 0 0 0 5 5 5 5 0 0 0 5 -5 5 5 0 0 0 -5 -5zm20 0a5 5 0 0 0 -5 5 5 5 0 0 0 5 5 5 5 0 0 0 5 -5 5 5 0 0 0 -5 -5zm-20 20a5 5 0 0 0 -5 5 5 5 0 0 0 5 5 5 5 0 0 0 5 -5 5 5 0 0 0 -5 -5zm20 0a5 5 0 0 0 -5 5 5 5 0 0 0 5 5 5 5 0 0 0 5 -5 5 5 0 0 0 -5 -5z" fill="#ff4040"/>
</g>
<g transform="matrix(4.2105 0 0 4.2105 857.89 -1009.7)">
<rect height="20.001" width="40" stroke="#000" y="332.36" x="60" stroke-width="0.475" fill="#00b800"/>
<path d="m70.5 337.86a5 5 0 0 0 -5 5 5 5 0 0 0 5 5 5 5 0 0 0 5 -5 5 5 0 0 0 -5 -5zm20 0a5 5 0 0 0 -5 5 5 5 0 0 0 5 5 5 5 0 0 0 5 -5 5 5 0 0 0 -5 -5z" fill="#4d4d4d"/>
<path d="m70 337.36a5 5 0 0 0 -5 5 5 5 0 0 0 5 5 5 5 0 0 0 5 -5 5 5 0 0 0 -5 -5zm20 0a5 5 0 0 0 -5 5 5 5 0 0 0 5 5 5 5 0 0 0 5 -5 5 5 0 0 0 -5 -5z" fill="#00de00"/>
</g>
<g transform="matrix(4.2105 0 0 4.2105 373.68 -1283.4)">
<rect height="40" width="40" stroke="#000" y="357.36" x="55" stroke-width="0.475" fill="#f50000"/>
<path d="m65.5 362.86a5 5 0 0 0 -5 5 5 5 0 0 0 5 5 5 5 0 0 0 5 -5 5 5 0 0 0 -5 -5zm20 0a5 5 0 0 0 -5 5 5 5 0 0 0 5 5 5 5 0 0 0 5 -5 5 5 0 0 0 -5 -5zm-20 20a5 5 0 0 0 -5 5 5 5 0 0 0 5 5 5 5 0 0 0 5 -5 5 5 0 0 0 -5 -5zm20 0a5 5 0 0 0 -5 5 5 5 0 0 0 5 5 5 5 0 0 0 5 -5 5 5 0 0 0 -5 -5z" fill="#4d4d4d"/>
<path d="m65 362.36a5 5 0 0 0 -5 5 5 5 0 0 0 5 5 5 5 0 0 0 5 -5 5 5 0 0 0 -5 -5zm20 0a5 5 0 0 0 -5 5 5 5 0 0 0 5 5 5 5 0 0 0 5 -5 5 5 0 0 0 -5 -5zm-20 20a5 5 0 0 0 -5 5 5 5 0 0 0 5 5 5 5 0 0 0 5 -5 5 5 0 0 0 -5 -5zm20 0a5 5 0 0 0 -5 5 5 5 0 0 0 5 5 5 5 0 0 0 5 -5 5 5 0 0 0 -5 -5z" fill="#ff4040"/>
</g>
<g transform="matrix(4.2105 0 0 4.2105 -194.73 -1136)">
<rect transform="rotate(-90)" height="20.001" width="40" stroke="#000" y="170" x="-362.36" stroke-width="0.475" fill="#00b800"/>
<path d="m175.5 352.86a5 5 0 0 0 5 5 5 5 0 0 0 5 -5 5 5 0 0 0 -5 -5 5 5 0 0 0 -5 5zm0-20a5 5 0 0 0 5 5 5 5 0 0 0 5 -5 5 5 0 0 0 -5 -5 5 5 0 0 0 -5 5z" fill="#4d4d4d"/>
<path d="m175 352.36a5 5 0 0 0 5 5 5 5 0 0 0 5 -5 5 5 0 0 0 -5 -5 5 5 0 0 0 -5 5zm0-20a5 5 0 0 0 5 5 5 5 0 0 0 5 -5 5 5 0 0 0 -5 -5 5 5 0 0 0 -5 5z" fill="#00de00"/>
</g>
<g transform="matrix(4.2105 0 0 4.2105 542.11 -1367.6)">
<rect height="40" width="40" stroke="#000" y="357.36" x="55" stroke-width="0.475" fill="#00b800"/>
<path d="m65.5 362.86a5 5 0 0 0 -5 5 5 5 0 0 0 5 5 5 5 0 0 0 5 -5 5 5 0 0 0 -5 -5zm20 0a5 5 0 0 0 -5 5 5 5 0 0 0 5 5 5 5 0 0 0 5 -5 5 5 0 0 0 -5 -5zm-20 20a5 5 0 0 0 -5 5 5 5 0 0 0 5 5 5 5 0 0 0 5 -5 5 5 0 0 0 -5 -5zm20 0a5 5 0 0 0 -5 5 5 5 0 0 0 5 5 5 5 0 0 0 5 -5 5 5 0 0 0 -5 -5z" fill="#4d4d4d"/>
<path d="m65 362.36a5 5 0 0 0 -5 5 5 5 0 0 0 5 5 5 5 0 0 0 5 -5 5 5 0 0 0 -5 -5zm20 0a5 5 0 0 0 -5 5 5 5 0 0 0 5 5 5 5 0 0 0 5 -5 5 5 0 0 0 -5 -5zm-20 20a5 5 0 0 0 -5 5 5 5 0 0 0 5 5 5 5 0 0 0 5 -5 5 5 0 0 0 -5 -5zm20 0a5 5 0 0 0 -5 5 5 5 0 0 0 5 5 5 5 0 0 0 5 -5 5 5 0 0 0 -5 -5z" fill="#00de00"/>
</g>
<g transform="matrix(4.2105 0 0 4.2105 710.53 -1367.6)">
<rect height="40" width="40" stroke="#000" y="357.36" x="55" stroke-width="0.475" fill="#00e"/>
<path d="m65.5 362.86a5 5 0 0 0 -5 5 5 5 0 0 0 5 5 5 5 0 0 0 5 -5 5 5 0 0 0 -5 -5zm20 0a5 5 0 0 0 -5 5 5 5 0 0 0 5 5 5 5 0 0 0 5 -5 5 5 0 0 0 -5 -5zm-20 20a5 5 0 0 0 -5 5 5 5 0 0 0 5 5 5 5 0 0 0 5 -5 5 5 0 0 0 -5 -5zm20 0a5 5 0 0 0 -5 5 5 5 0 0 0 5 5 5 5 0 0 0 5 -5 5 5 0 0 0 -5 -5z" fill="#4d4d4d"/>
<path d="m65 362.36a5 5 0 0 0 -5 5 5 5 0 0 0 5 5 5 5 0 0 0 5 -5 5 5 0 0 0 -5 -5zm20 0a5 5 0 0 0 -5 5 5 5 0 0 0 5 5 5 5 0 0 0 5 -5 5 5 0 0 0 -5 -5zm-20 20a5 5 0 0 0 -5 5 5 5 0 0 0 5 5 5 5 0 0 0 5 -5 5 5 0 0 0 -5 -5zm20 0a5 5 0 0 0 -5 5 5 5 0 0 0 5 5 5 5 0 0 0 5 -5 5 5 0 0 0 -5 -5z" fill="#4343ff"/>
</g>
<g transform="matrix(4.2105 0 0 4.2105 352.63 -1936)">
<rect height="20.001" width="20" stroke="#000" y="492.36" x="60" stroke-width="0.475" fill="#00b800"/>
<path d="m70.5 497.86a5 5 0 0 0 -5 5 5 5 0 0 0 5 5 5 5 0 0 0 5 -5 5 5 0 0 0 -5 -5z" fill="#4d4d4d"/>
<path d="m70 497.36a5 5 0 0 0 -5 5 5 5 0 0 0 5 5 5 5 0 0 0 5 -5 5 5 0 0 0 -5 -5z" fill="#00de00"/>
</g>
<g transform="matrix(4.2105 0 0 4.2105 1300 -1030.7)">
<rect height="40" width="40" stroke="#000" y="357.36" x="55" stroke-width="0.475" fill="#f50000"/>
<path d="m65.5 362.86a5 5 0 0 0 -5 5 5 5 0 0 0 5 5 5 5 0 0 0 5 -5 5 5 0 0 0 -5 -5zm20 0a5 5 0 0 0 -5 5 5 5 0 0 0 5 5 5 5 0 0 0 5 -5 5 5 0 0 0 -5 -5zm-20 20a5 5 0 0 0 -5 5 5 5 0 0 0 5 5 5 5 0 0 0 5 -5 5 5 0 0 0 -5 -5zm20 0a5 5 0 0 0 -5 5 5 5 0 0 0 5 5 5 5 0 0 0 5 -5 5 5 0 0 0 -5 -5z" fill="#4d4d4d"/>
<path d="m65 362.36a5 5 0 0 0 -5 5 5 5 0 0 0 5 5 5 5 0 0 0 5 -5 5 5 0 0 0 -5 -5zm20 0a5 5 0 0 0 -5 5 5 5 0 0 0 5 5 5 5 0 0 0 5 -5 5 5 0 0 0 -5 -5zm-20 20a5 5 0 0 0 -5 5 5 5 0 0 0 5 5 5 5 0 0 0 5 -5 5 5 0 0 0 -5 -5zm20 0a5 5 0 0 0 -5 5 5 5 0 0 0 5 5 5 5 0 0 0 5 -5 5 5 0 0 0 -5 -5z" fill="#ff4040"/>
</g>
<g transform="matrix(4.2105 0 0 4.2105 1110.5 -1557.1)">
<rect height="19.999" width="80" stroke="#000" y="462.36" x="60" stroke-width="0.475" fill="#00b800"/>
<path d="m70.5 467.86a5 5 0 0 0 -5 5 5 5 0 0 0 5 5 5 5 0 0 0 5 -5 5 5 0 0 0 -5 -5zm20 0a5 5 0 0 0 -5 5 5 5 0 0 0 5 5 5 5 0 0 0 5 -5 5 5 0 0 0 -5 -5zm20 0a5 5 0 0 0 -5 5 5 5 0 0 0 5 5 5 5 0 0 0 5 -5 5 5 0 0 0 -5 -5zm20 0a5 5 0 0 0 -5 5 5 5 0 0 0 5 5 5 5 0 0 0 5 -5 5 5 0 0 0 -5 -5z" fill="#4d4d4d"/>
<path d="m70 467.36a5 5 0 0 0 -5 5 5 5 0 0 0 5 5 5 5 0 0 0 5 -5 5 5 0 0 0 -5 -5zm20 0a5 5 0 0 0 -5 5 5 5 0 0 0 5 5 5 5 0 0 0 5 -5 5 5 0 0 0 -5 -5zm20 0a5 5 0 0 0 -5 5 5 5 0 0 0 5 5 5 5 0 0 0 5 -5 5 5 0 0 0 -5 -5zm20 0a5 5 0 0 0 -5 5 5 5 0 0 0 5 5 5 5 0 0 0 5 -5 5 5 0 0 0 -5 -5z" fill="#00de00"/>
</g>
</g>
</svg>
